HIERARCHY
ROOT Hips
{
	OFFSET 0.00000 0.00000 0.00000
	CHANNELS 6 Xposition Yposition Zposition Zrotation Yrotation Xrotation 
	JOINT LHipJoint
	{
		OFFSET 0 0 0
		CHANNELS 3 Zrotation Yrotation Xrotation
		JOINT LeftHip
		{
			OFFSET 1.62067 -1.77917 0.70989
			CHANNELS 3 Zrotation Yrotation Xrotation
			JOINT LeftKnee
			{
				OFFSET 2.34532 -6.44371 0.00000
				CHANNELS 3 Zrotation Yrotation Xrotation
				JOINT LeftAnkle
				{
					OFFSET 2.74224 -7.53425 0.00000
					CHANNELS 3 Zrotation Yrotation Xrotation
					JOINT LeftToe
					{
						OFFSET 0.17032 -0.46794 2.08086
						CHANNELS 3 Zrotation Yrotation Xrotation
						End Site
						{
							OFFSET 0.00000 -0.00000 1.07476
						}
					}
				}
			}
		}
	}
	JOINT RHipJoint
	{
		OFFSET 0 0 0
		CHANNELS 3 Zrotation Yrotation Xrotation
		JOINT RightHip
		{
			OFFSET -1.55811 -1.77917 0.70989
			CHANNELS 3 Zrotation Yrotation Xrotation
			JOINT RightKnee
			{
				OFFSET -2.33243 -6.40830 0.00000
				CHANNELS 3 Zrotation Yrotation Xrotation
				JOINT RightAnkle
				{
					OFFSET -2.78798 -7.65993 0.00000
					CHANNELS 3 Zrotation Yrotation Xrotation
					JOINT RightToe
					{
						OFFSET -0.22707 -0.62388 2.04059
						CHANNELS 3 Zrotation Yrotation Xrotation
						End Site
						{
							OFFSET -0.00000 -0.00000 1.07030
						}
					}
				}
			}
		}
	}
	JOINT lowerback
	{
		OFFSET 0 0 0
		CHANNELS 3 Zrotation Yrotation Xrotation
		JOINT Chest
		{
			OFFSET 0.02203 1.91565 0.07161
			CHANNELS 3 Zrotation Yrotation Xrotation
			JOINT Chest2
			{
				OFFSET 0.01740 1.90525 0.11636
				CHANNELS 3 Zrotation Yrotation Xrotation
				JOINT lowerneck
				{
					OFFSET 0 0 0
					CHANNELS 3 Zrotation Yrotation Xrotation
					JOINT Neck
					{
						OFFSET -0.10841 1.83566 0.05067
						CHANNELS 3 Zrotation Yrotation Xrotation
						JOINT Head
						{
							OFFSET 0.06601 1.74760 -0.50505
							CHANNELS 3 Zrotation Yrotation Xrotation
							End Site
							{
								OFFSET 0.03102 1.85215 -0.17697
							}
						}
					}
				}
				JOINT LeftCollar
				{
					OFFSET 0 0 0
					CHANNELS 3 Zrotation Yrotation Xrotation
					JOINT LeftShoulder
					{
						OFFSET 2.87059 1.35470 0.16111
CHANNELS 3 Zrotation Xrotation Yrotation
						JOINT LeftElbow
						{
OFFSET 0 -5.435920 0.000000
CHANNELS 3 Zrotation Xrotation Yrotation
							JOINT LeftWrist
							{
OFFSET 0 -3.254600 0.000000
CHANNELS 3 Zrotation Xrotation Yrotation
								JOINT lhand
								{
									OFFSET 0 0 0
CHANNELS 3 Zrotation Xrotation Yrotation
									JOINT LFingers
									{
OFFSET 0 -0.498240 0.000000
CHANNELS 3 Zrotation Xrotation Yrotation
										End Site
										{
OFFSET 0 -0.401700 0.000000
										}
									}
								}
								JOINT LThumb
								{
OFFSET 0 0.000000 0.000000
CHANNELS 3 Zrotation Xrotation Yrotation
									End Site
									{
OFFSET 0 -0.407830 0.407830
									}
								}
							}
						}
					}
				}
				JOINT RightCollar
				{
					OFFSET 0 0 0
					CHANNELS 3 Zrotation Yrotation Xrotation
					JOINT RightShoulder
					{
						OFFSET -2.86643 1.23488 0.45957
CHANNELS 3 Zrotation Xrotation Yrotation
						JOINT RightElbow
						{
OFFSET 0 -5.338300 0.000000
CHANNELS 3 Zrotation Xrotation Yrotation
							JOINT RightWrist
							{
OFFSET 0 -3.231480 0.000000
CHANNELS 3 Zrotation Xrotation Yrotation
								JOINT rhand
								{
									OFFSET 0 0 0
CHANNELS 3 Zrotation Xrotation Yrotation
									JOINT RFingers
									{
OFFSET 0 -0.463640 0.000000
CHANNELS 3 Zrotation Xrotation Yrotation
										End Site
										{
OFFSET 0 -0.373800 0.000000
										}
									}
								}
								JOINT RThumb
								{
OFFSET 0 0.000000 0.000000
CHANNELS 3 Zrotation Xrotation Yrotation
									End Site
									{
OFFSET 0 -0.379510 0.379510
									}
								}
							}
						}
					}
				}
			}
		}
	}
}
MOTION
Frames: 9
Frame Time: .0083333
4.5756 17.2577 0.6499 -2.0677 -1.3536 11.5562 0.0000 0.0000 0.0000 -27.1874 -5.9423 -22.2200 2.5344 9.9003 28.6543 0.9283 4.6121 -20.4301 0.4250 4.1839 11.5947 0.0000 0.0000 0.0000 1.0005 13.2414 -21.3843 -6.5983 -14.9841 47.3382 0.9796 -19.3054 2.2358 -0.4866 4.4727 -12.4106 9.2217 -1.5436 -2.4812 1.0520 -1.9976 -5.6614 -4.0153 -1.3825 -4.8240 -0.7498 3.2420 -10.1623 0.6386 4.9331 43.7446 1.2776 1.9319 17.9504 -0.0000 -0.0000 0.0000 116.9691 -15.8359 34.8452 51.8964 -53.7323 27.696 34.5071 -65.4743 24.5176 0.0 0.0 0.0 -7.1250 0.0 0.0 3.0455 1.0521 2.9934 -0.0000 -0.0000 0.0000 -84.578 -3.5064 -18.3781 -134.3404 -51.0875 -97.2492 -3.3508 -61.0284 43.0825 0.0 0.0 0.0 7.1250 0.0 -0.0 46.8140 67.4966 -27.6517
4.5771 17.2514 0.6462 -2.0034 -1.2500 11.5223 0.0000 0.0000 0.0000 -27.2627 -6.0097 -22.2252 2.5596 9.9455 28.8004 0.9357 4.6047 -20.4948 0.4217 4.1679 11.5494 0.0000 0.0000 0.0000 1.0345 13.1407 -21.7630 -6.7474 -15.1155 47.9125 0.9412 -18.8854 2.0874 -0.5273 4.6533 -12.9223 9.1934 -1.5743 -2.5019 1.0171 -2.0440 -5.6289 -4.0363 -1.4026 -4.7839 -0.7539 3.1588 -10.1632 0.5747 4.8337 43.8944 1.2353 1.8776 18.0471 0.0000 0.0000 0.0000 116.6744 -16.3881 35.1161 52.3592 -53.9038 28.0695 33.2362 -64.315 24.0495 0.0 0.0 0.0 -7.1250 0.0 0.0 2.3697 1.919 2.291 0.0000 0.0000 0.0000 -84.268 -3.5123 -18.2789 -134.3772 -51.07 -97.2778 -3.3181 -61.2941 43.0258 0.0 0.0 0.0 7.1250 0.0 -0.0 46.7423 67.4486 -27.5539
4.5721 17.2481 0.6410 -2.0865 -1.2903 11.4772 0.0000 0.0000 0.0000 -27.1444 -5.9930 -22.2760 2.5808 9.9833 28.9226 0.9456 4.5836 -20.5740 0.4295 4.2058 11.6564 0.0000 0.0000 0.0000 1.2658 13.3514 -22.1931 -6.9043 -15.2508 48.5114 0.9118 -18.6196 2.0986 -0.5488 4.7458 -13.1850 9.2000 -1.5703 -2.4387 1.0227 -2.0345 -5.5761 -4.0338 -1.3953 -4.7623 -0.8511 3.1499 -10.1914 0.7800 4.7605 43.9663 1.3386 1.8571 18.0856 -0.0000 0.0000 0.0000 116.422 -15.6884 33.7265 53.7568 -54.4027 29.2024 33.0455 -65.6738 24.0149 0.0 0.0 0.0 -7.1250 0.0 0.0 2.2610 2.0072 2.1821 -0.0000 0.0000 0.0000 -83.931 -3.4544 -18.1038 -134.4265 -51.0464 -97.3162 -3.5333 -61.2522 42.5727 0.0 0.0 0.0 7.1250 0.0 -0.0 45.7304 67.2087 -26.6214
4.5633 17.2444 0.6350 -2.0945 -1.5140 11.4239 0.0000 0.0000 0.0000 -27.1239 -5.8355 -22.3629 2.5966 10.0114 29.0136 0.9493 4.6046 -20.6220 0.4282 4.1998 11.6394 0.0000 0.0000 0.0000 1.3881 13.7917 -22.6342 -7.0630 -15.3847 49.1123 0.8967 -18.2719 1.6694 -0.5266 4.6505 -12.9144 9.0395 -1.5308 -2.2936 1.0252 -1.9696 -5.5215 -3.9408 -1.3544 -4.7684 -0.8584 3.1649 -10.1126 0.8335 4.7593 43.9627 1.3621 1.8631 18.0590 -0.0000 0.0000 0.0000 116.1983 -15.5693 33.2716 54.5947 -54.6885 29.8849 33.5756 -66.5635 24.2141 0.0 0.0 0.0 -7.1250 0.0 0.0 2.5442 1.6453 2.4725 -0.0000 0.0000 0.0000 -83.5726 -3.3601 -17.918 -134.4935 -51.0142 -97.3682 -3.138 -61.358 42.1513 0.0 0.0 0.0 7.1250 0.0 -0.0 45.3747 66.7995 -25.9772
4.5596 17.2433 0.6286 -2.0680 -1.6180 11.3941 0.0000 0.0000 0.0000 -27.1619 -5.7499 -22.4195 2.6078 10.0312 29.0780 0.9461 4.6691 -20.6312 0.4101 4.1110 11.3891 0.0000 0.0000 0.0000 1.4621 14.0455 -23.0691 -7.2202 -15.5145 49.7023 0.8382 -17.6600 1.5616 -0.5962 4.9432 -13.7466 8.9368 -1.5279 -2.2114 1.0034 -1.9605 -5.4817 -3.9053 -1.3446 -4.7667 -0.8666 3.1145 -9.9137 0.7426 4.7140 43.9981 1.3080 1.8309 18.0324 -0.0000 -0.0000 0.0000 115.9868 -15.6927 33.0828 55.2783 -54.9145 30.4436 34.3027 -67.1017 24.186 0.0 0.0 0.0 -7.1250 0.0 0.0 2.9853 1.4815 2.9111 -0.0000 -0.0000 0.0000 -83.1714 -3.3761 -17.7717 -134.5415 -50.9911 -97.4055 -2.2874 -61.6334 42.3043 0.0 0.0 0.0 7.1250 0.0 -0.0 46.4417 66.6468 -26.5424
4.5622 17.2446 0.6275 -2.0347 -1.5737 11.3591 0.0000 0.0000 0.0000 -27.2051 -5.7670 -22.3798 2.6147 10.0435 29.1178 0.9515 4.6497 -20.6697 0.4232 4.1753 11.5704 0.0000 0.0000 0.0000 1.5309 14.0309 -23.5024 -7.3756 -15.6402 50.2810 0.7538 -16.9728 1.8995 -0.6534 5.1703 -14.3949 8.9424 -1.5937 -2.2190 0.9561 -2.0568 -5.3779 -3.9579 -1.3868 -4.6673 -0.8775 3.0479 -10.0421 0.6644 4.6485 44.1532 1.2691 1.7840 18.1679 0.0000 -0.0000 0.0000 115.7992 -15.7695 32.9384 55.9434 -55.1283 30.9885 34.2929 -67.2374 24.3653 0.0 0.0 0.0 -7.1250 0.0 0.0 2.9461 1.2824 2.8833 0.0000 -0.0000 0.0000 -82.7465 -3.58 -17.6797 -134.5137 -51.0045 -97.3839 -2.6795 -61.0347 42.513 0.0 0.0 0.0 7.1250 0.0 -0.0 46.4332 66.9072 -26.7989
4.5624 17.2395 0.6228 -1.8925 -1.5950 11.3427 0.0000 0.0000 0.0000 -27.3576 -5.8052 -22.3745 2.6205 10.0539 29.1513 0.9525 4.6534 -20.6812 0.4500 4.3037 11.9327 0.0000 0.0000 0.0000 1.4558 14.0573 -24.0153 -7.5374 -15.7683 50.8789 0.6874 -16.3331 2.0234 -0.6436 5.1323 -14.2864 8.8150 -1.6479 -2.1734 0.9014 -2.1307 -5.3089 -3.9424 -1.4159 -4.6252 -0.8343 3.0294 -10.2069 0.5290 4.6723 44.3450 1.2107 1.7738 18.3414 0.0000 -0.0000 0.0000 115.5786 -15.9013 32.9077 56.5204 -55.3091 31.4624 33.6077 -66.8632 24.4317 0.0 0.0 0.0 -7.1250 0.0 0.0 2.5239 1.3934 2.4642 0.0000 -0.0000 0.0000 -82.4099 -3.6879 -17.524 -134.5705 -50.9772 -97.4281 -3.4154 -60.6014 42.5244 0.0 0.0 0.0 7.1250 0.0 -0.0 45.7574 67.1396 -26.5714
4.5575 17.2314 0.6085 -1.7509 -1.6425 11.3682 0.0000 0.0000 0.0000 -27.4839 -5.9090 -22.4705 2.6309 10.0721 29.2105 0.9421 4.7358 -20.6350 0.4571 4.3373 12.0277 0.0000 0.0000 0.0000 1.4070 14.2473 -24.5959 -7.7126 -15.9037 51.5208 0.6386 -15.7618 1.9608 -0.7241 5.4373 -15.1601 8.6285 -1.6575 -2.0754 0.8680 -2.1351 -5.3210 -3.8700 -1.4137 -4.6855 -0.7895 3.0173 -10.1065 0.3657 4.7117 44.4560 1.1320 1.7729 18.3939 0.0000 -0.0000 0.0000 115.3375 -16.0863 32.856 57.0907 -55.4835 31.9319 32.9649 -66.3937 24.0065 0.0 0.0 0.0 -7.1250 0.0 0.0 2.2138 2.0375 2.1353 0.0000 -0.0000 0.0000 -82.0932 -3.6869 -17.3651 -134.6864 -50.9212 -97.5181 -3.1769 -61.1614 42.8054 0.0 0.0 0.0 7.1250 0.0 -0.0 46.4795 67.2569 -27.181
4.5513 17.2300 0.5918 -1.7786 -1.6662 11.3709 0.0000 0.0000 0.0000 -27.3999 -6.0368 -22.5911 2.6463 10.0991 29.2984 0.9316 4.8439 -20.6032 0.4562 4.3328 12.0147 0.0000 0.0000 0.0000 1.5798 14.5460 -25.1577 -7.8938 -16.0406 52.1792 0.6143 -15.4025 1.7981 -0.8045 5.7243 -15.9866 8.5803 -1.6486 -1.9550 0.8806 -2.1112 -5.3081 -3.8271 -1.4008 -4.7337 -0.7637 3.0024 -9.9607 0.2331 4.7363 44.4831 1.0655 1.7701 18.3789 -0.0000 0.0000 0.0000 115.0916 -16.2107 32.689 57.6739 -55.6575 32.4129 33.0104 -66.6236 24.0417 0.0 0.0 0.0 -7.1250 0.0 0.0 2.2351 1.9865 2.1579 -0.0000 0.0000 0.0000 -81.7521 -3.7972 -17.3233 -134.6524 -50.9376 -97.4917 -3.1146 -61.4627 43.37 0.0 0.0 0.0 7.1250 0.0 -0.0 47.5605 67.6141 -28.2899
